<?xml version="1.0" encoding="utf-8"?>
<!-- Generator: Adobe Illustrator 16.0.0, SVG Export Plug-In . SVG Version: 6.00 Build 0)  -->
<!DOCTYPE svg PUBLIC "-//W3C//DTD SVG 1.1//EN" "http://www.w3.org/Graphics/SVG/1.1/DTD/svg11.dtd">
<svg version="1.1" id="Layer_1" xmlns="http://www.w3.org/2000/svg" xmlns:xlink="http://www.w3.org/1999/xlink" x="0px" y="0px"
	 width="960px" height="560px" viewBox="0 0 960 560" enable-background="new 0 0 960 560" xml:space="preserve">
<g>
	<g>
		<path fill-rule="evenodd" clip-rule="evenodd" fill="none" d="M751.433,281.466c0,88.864-0.016,177.729,0.071,266.592
			c0.002,2.813-0.635,3.446-3.446,3.445c-177.978-0.079-355.955-0.079-533.933,0c-2.812,0.001-3.446-0.634-3.444-3.445
			c0.078-177.978,0.078-355.956,0-533.933c-0.001-2.812,0.633-3.446,3.444-3.445c177.978,0.078,355.956,0.078,533.933,0
			c2.812-0.001,3.448,0.633,3.446,3.445C751.417,103.238,751.433,192.353,751.433,281.466z M481.089,500.547
			c68.615,0,137.229,0,205.845-0.001c1.375,0,2.75-0.012,4.124-0.046c1.464-0.038,2.277-0.612,2.254-2.277
			c-0.117-8.296-2.062-16.428-4.12-24.251c-1.688-6.408-4.759-12.75-7.734-18.933c-3.021-6.275-6.855-12.014-10.639-17.738
			c-5.486-8.302-12.928-15.011-19.765-22.224c-6.563-6.925-14.173-12.521-21.659-18.151c-7.031-5.29-14.628-10.026-22.811-13.685
			c-6.522-2.916-12.639-6.857-19.155-9.647c-4.871-2.084-10.154-3.696-15.366-5.207c-7.918-2.296-15.753-4.859-23.776-6.803
			c-15.578-3.775-31.395-5.978-47.345-7.261c-6.418-0.516-12.9-0.387-19.275-1.183c-3.995-0.499-7.545,1.186-11.44,1.055
			c-10.266-0.347-20.418,1.24-30.566,2.569c-13.534,1.771-26.732,5.071-39.909,8.583c-3.66,0.976-7.518,1.943-10.921,3.21
			c-4.879,1.816-9.82,3.829-14.617,6.041c-5.252,2.421-11.13,3.705-15.986,6.7c-4.193,2.587-8.343,5.281-12.65,7.707
			c-2.059,1.159-4.25,2.136-6.157,3.505c-8.072,5.796-15.773,12.06-23.501,18.313c-7.271,5.885-12.97,12.97-18.948,19.943
			c-3.589,4.186-5.979,9.184-9.417,13.396c-2.67,3.274-4.931,7.056-6.419,10.589c-2.655,6.301-5.937,12.434-7.43,19.327
			c-1.586,7.322-3.388,14.586-4.406,22.023c-0.442,3.231,0.717,4.754,4.073,4.459c1.24-0.11,2.498-0.015,3.748-0.015
			C345.109,500.547,413.099,500.547,481.089,500.547z M376.376,233.818c0,1.35,0.057,2.353-0.009,3.348
			c-0.683,10.216,1.658,20.204,3.852,29.924c1.112,4.93,2.709,10.439,5.641,15.183c2.523,4.082,3.52,9.146,6.205,13.084
			c7.701,11.296,15.46,22.658,26.938,30.658c6.123,4.269,11.975,9.201,18.659,12.307c5.946,2.762,12.203,5.21,18.779,6.757
			c23.787,5.594,46.738,4.052,68.874-6.723c2.56-1.246,5.703-1.643,7.837-3.354c8.76-7.028,18.449-12.873,25.63-21.932
			c4.142-5.225,8.843-10.194,12.093-15.9c4.65-8.161,9.013-16.563,11.501-25.854c2.758-10.291,5.162-20.631,5.511-31.242
			c0.566-17.293-1.78-34.14-7.989-50.522c-3.963-10.457-9.247-20.048-15.971-28.747c-6.367-8.237-13.85-15.71-22.283-21.817
			c-8.673-6.28-18.352-11.022-28.608-14.393c-9.562-3.143-19.422-4.986-29.429-5.029c-19.105-0.082-36.998,4.776-53.481,14.616
			c-7.948,4.745-15.474,10.233-21.59,17.02c-6.648,7.379-13.174,14.978-17.593,24.229c-3.639,7.618-7.539,14.969-9.707,23.255
			C378.18,210.364,376.019,222.07,376.376,233.818z"/>
		<path fill-rule="evenodd" clip-rule="evenodd" d="M481.089,500.547c-67.99,0-135.98,0-203.97,0c-1.25,0-2.508-0.096-3.748,0.015
			c-3.356,0.295-4.515-1.228-4.073-4.459c1.018-7.438,2.82-14.701,4.406-22.023c1.493-6.894,4.775-13.026,7.43-19.327
			c1.489-3.533,3.749-7.314,6.419-10.589c3.437-4.213,5.827-9.211,9.417-13.396c5.978-6.974,11.677-14.059,18.948-19.943
			c7.728-6.253,15.429-12.517,23.501-18.313c1.908-1.369,4.098-2.346,6.157-3.505c4.308-2.426,8.457-5.12,12.65-7.707
			c4.856-2.995,10.733-4.279,15.986-6.7c4.797-2.212,9.737-4.225,14.617-6.041c3.403-1.267,7.261-2.234,10.921-3.21
			c13.176-3.512,26.375-6.812,39.909-8.583c10.148-1.329,20.3-2.916,30.566-2.569c3.895,0.131,7.445-1.554,11.44-1.055
			c6.375,0.796,12.857,0.667,19.275,1.183c15.95,1.283,31.767,3.485,47.345,7.261c8.023,1.943,15.858,4.507,23.776,6.803
			c5.212,1.511,10.495,3.123,15.366,5.207c6.517,2.79,12.633,6.731,19.155,9.647c8.183,3.658,15.779,8.395,22.811,13.685
			c7.486,5.631,15.096,11.227,21.659,18.151c6.837,7.213,14.278,13.922,19.765,22.224c3.783,5.725,7.617,11.463,10.639,17.738
			c2.976,6.183,6.047,12.524,7.734,18.933c2.059,7.823,4.003,15.955,4.12,24.251c0.023,1.665-0.79,2.239-2.254,2.277
			c-1.374,0.034-2.749,0.046-4.124,0.046C618.318,500.547,549.704,500.547,481.089,500.547z"/>
		<path fill-rule="evenodd" clip-rule="evenodd" d="M376.376,233.818c-0.358-11.749,1.803-23.454,4.858-35.131
			c2.167-8.286,6.067-15.637,9.707-23.255c4.419-9.251,10.945-16.85,17.593-24.229c6.116-6.787,13.642-12.275,21.59-17.02
			c16.484-9.839,34.376-14.697,53.481-14.616c10.007,0.042,19.867,1.886,29.429,5.029c10.257,3.37,19.936,8.112,28.608,14.393
			c8.434,6.107,15.916,13.58,22.283,21.817c6.724,8.699,12.008,18.29,15.971,28.747c6.209,16.382,8.556,33.229,7.989,50.522
			c-0.349,10.61-2.753,20.951-5.511,31.242c-2.488,9.292-6.851,17.693-11.501,25.854c-3.25,5.706-7.951,10.676-12.093,15.9
			c-7.181,9.059-16.87,14.903-25.63,21.932c-2.134,1.712-5.277,2.108-7.837,3.354c-22.136,10.774-45.087,12.316-68.874,6.723
			c-6.576-1.547-12.833-3.995-18.779-6.757c-6.684-3.105-12.536-8.038-18.659-12.307c-11.478-8-19.236-19.362-26.938-30.658
			c-2.685-3.938-3.682-9.002-6.205-13.084c-2.932-4.744-4.528-10.253-5.641-15.183c-2.194-9.721-4.535-19.708-3.852-29.924
			C376.434,236.171,376.376,235.168,376.376,233.818z"/>
	</g>
</g>
</svg>
